<svg xmlns="http://www.w3.org/2000/svg" viewBox="0 0 800 600">
  <style>
    .title { font: bold 24px sans-serif; }
    .subtitle { font: bold 18px sans-serif; }
    .text { font: 14px sans-serif; }
    .code { font: 12px monospace; fill: #333; }
    .box { fill: #f0f0f0; stroke: #333; stroke-width: 2; }
    .highlight { fill: #e6f3ff; }
    .arrow { stroke: #333; stroke-width: 2; fill: none; marker-end: url(#arrowhead); }
  </style>
  
  <!-- Title -->
  <text x="400" y="30" text-anchor="middle" class="title">Interface Segregation Principle (ISP)</text>
  
  <!-- Definition -->
  <rect x="50" y="50" width="700" height="40" class="box"/>
  <text x="400" y="75" text-anchor="middle" class="text">
    "Clients should not be forced to depend upon interfaces that they do not use."
  </text>
  
  <!-- Key Concepts -->
  <text x="50" y="120" class="subtitle">Key Concepts:</text>
  
  <rect x="50" y="130" width="700" height="100" class="box highlight"/>
  <text x="60" y="150" class="text">• Break interfaces into smaller, more focused ones</text>
  <text x="60" y="170" class="text">• Avoid "fat" interfaces that force classes to implement unnecessary methods</text>
  <text x="60" y="190" class="text">• Design interfaces based on client needs, not on implementations</text>
  <text x="60" y="210" class="text">• Prefer many client-specific interfaces to one general-purpose interface</text>
  
  <!-- Example -->
  <text x="50" y="260" class="subtitle">Example: Concert Ticket System</text>
  
  <!-- Bad Design -->
  <rect x="50" y="280" width="300" height="140" class="box"/>
  <text x="200" y="300" text-anchor="middle" class="subtitle">Bad Design</text>
  <text x="60" y="320" class="code">interface ITicket {</text>
  <text x="70" y="340" class="code">  void Reserve();</text>
  <text x="70" y="360" class="code">  void Cancel();</text>
  <text x="70" y="380" class="code">  void Print();</text>
  <text x="70" y="400" class="code">  void SendEmail();</text>
  <text x="60" y="420" class="code">}</text>
  
  <!-- Good Design -->
  <rect x="450" y="280" width="300" height="220" class="box highlight"/>
  <text x="600" y="300" text-anchor="middle" class="subtitle">Good Design (ISP)</text>
  <text x="460" y="320" class="code">interface IReservable {</text>
  <text x="470" y="340" class="code">  void Reserve();</text>
  <text x="470" y="360" class="code">  void Cancel();</text>
  <text x="460" y="380" class="code">}</text>
  <text x="460" y="400" class="code">interface IPrintable {</text>
  <text x="470" y="420" class="code">  void Print();</text>
  <text x="460" y="440" class="code">}</text>
  <text x="460" y="460" class="code">interface IEmailable {</text>
  <text x="470" y="480" class="code">  void SendEmail();</text>
  <text x="460" y="500" class="code">}</text>
  
  <!-- Arrow -->
  <path d="M350 350 L450 350" class="arrow"/>
  
  <!-- Implementation Examples -->
  <rect x="50" y="440" width="300" height="80" class="box"/>
  <text x="60" y="460" class="code">class StandardTicket : ITicket { ... }</text>
  <text x="60" y="480" class="code">// Forced to implement all methods,</text>
  <text x="60" y="500" class="code">// even if some are not applicable</text>
  
  <rect x="450" y="520" width="300" height="80" class="box highlight"/>
  <text x="460" y="540" class="code">class StandardTicket :</text>
  <text x="460" y="560" class="code">  IReservable, IPrintable { ... }</text>
  <text x="460" y="580" class="code">// Implements only relevant interfaces</text>
  
  <!-- Benefits -->
  <text x="50" y="550" class="subtitle">Benefits of ISP:</text>
  <text x="60" y="570" class="text">• Increased flexibility and maintainability</text>
  <text x="60" y="590" class="text">• Reduced coupling between classes</text>
  <text x="400" y="570" class="text">• Easier to implement and understand</text>
  <text x="400" y="590" class="text">• Promotes single responsibility principle</text>
  
  <!-- Arrowhead marker -->
  <defs>
    <marker id="arrowhead" markerWidth="10" markerHeight="7" refX="0" refY="3.5" orient="auto">
      <polygon points="0 0, 10 3.5, 0 7" />
    </marker>
  </defs>
</svg>
